<?xml version="1.0" encoding="iso-8859-1"?>
<!-- Uploaded to: SVG Repo, www.svgrepo.com, Generator: SVG Repo Mixer Tools -->
<svg height="800px" width="800px" version="1.1" id="Capa_1" xmlns="http://www.w3.org/2000/svg" xmlns:xlink="http://www.w3.org/1999/xlink" 
	 viewBox="0 0 296.5 296.5" xml:space="preserve">
<g>
	<path style="fill:none;" d="M100.97,136.578c11.857,9.774,20,23.676,22.022,39.676h11.986c-11.728-20-20.975-36.251-28.279-48.923
		L100.97,136.578z"/>
	<path style="fill:#B4B4FF;" d="M61.416,192.254c-4.418,0-8-3.383-8-7.801c0-2.014,0.75-3.749,1.977-5.155l23.424-37.345
		c-5.278-2.131-11.035-3.291-17.067-3.291c-25.227,0-45.75,20.536-45.75,45.763s20.523,45.558,45.75,45.558
		c22.421,0,41.114-15.729,44.997-37.729H61.416z"/>
	<path style="fill:#B4B4FF;" d="M92.381,150.09l-16.389,26.164h30.832C105.049,166.254,99.828,156.815,92.381,150.09z"/>
	<path style="fill:#B4B4FF;" d="M234.75,138.687c-5.41,0-10.603,0.95-15.424,2.683l22.444,39.083
		c2.2,3.832,0.878,8.722-2.953,10.922c-1.256,0.721-2.626,1.064-3.977,1.064c-2.771,0-5.466-1.441-6.945-4.017l-22.446-39.087
		C195.404,157.734,189,170.35,189,184.437c0,25.227,20.523,45.75,45.75,45.75s45.75-20.523,45.75-45.75
		S259.977,138.687,234.75,138.687z"/>
	<path d="M234.75,122.687c-8.311,0-16.238,1.66-23.482,4.65l-26.654-46.415c12.3-2.286,22.307-7.601,26.61-19.975
		c1.452-4.173-0.754-8.732-4.928-10.184c-4.171-1.45-8.731,0.754-10.184,4.928c-3.283,9.437-15.005,10.96-41.778,10.96
		c-4.418,0-8,3.582-8,8c0,4.418,3.582,8,8,8c4.259,0,8.542-0.003,12.752-0.12l17.311,30.144l-35.322,56.39
		c-15.14-26.238-39.347-68.214-50.021-86.812h0.28c4.418,0,8-3.582,8-8s-3.582-8-8-8h-28c-4.418,0-8,3.582-8,8s3.582,8,8,8h9.328
		c1.958,3.506,6.449,11.363,16.993,29.676l-10.249,16.362c-7.819-3.588-16.504-5.604-25.655-5.604
		c-34.049,0-61.75,27.701-61.75,61.75s27.701,61.551,61.75,61.551c31.263,0,57.155-22.734,61.187-53.734h25.79
		c0.005,0,0.01,0,0.015,0s0.011,0,0.016,0h0.075c2.858,0,5.499-1.325,6.928-3.801c0.107-0.186,0.191-0.281,0.282-0.473
		l37.384-59.631l3.969,6.936C182.583,146.576,173,164.405,173,184.425c0,34.049,27.701,61.757,61.75,61.757
		s61.75-27.698,61.75-61.747C296.5,150.385,268.799,122.687,234.75,122.687z M61.75,229.988c-25.227,0-45.75-20.424-45.75-45.65
		c0-25.227,20.523-45.7,45.75-45.7c6.032,0,11.789,1.21,17.067,3.341l-23.424,37.406c-1.227,1.406-1.977,3.049-1.977,5.062
		c0,4.418,3.582,7.807,8,7.807h45.331C102.864,214.254,84.171,229.988,61.75,229.988z M75.992,176.254l16.389-26.164
		c7.447,6.726,12.668,16.164,14.443,26.164H75.992z M122.992,176.254c-2.022-16-10.165-29.901-22.022-39.676l5.729-9.247
		c7.305,12.672,16.551,28.923,28.279,48.923H122.992z M234.75,230.187c-25.227,0-45.75-20.523-45.75-45.75
		c0-14.087,6.404-26.703,16.449-35.102l22.446,39.087c1.48,2.575,4.174,4.017,6.945,4.017c1.351,0,2.721-0.343,3.977-1.064
		c3.831-2.2,5.153-7.09,2.953-10.922l-22.444-39.083c4.821-1.732,10.014-2.683,15.424-2.683c25.227,0,45.75,20.523,45.75,45.75
		S259.977,230.187,234.75,230.187z"/>
</g>
</svg>