
<svg xmlns="http://www.w3.org/2000/svg" xml:space="preserve" width="800" height="800" viewBox="0 0 750.137 750.137"><path fill="#535bf2" d="M453.137 234.206c-29.418 0-54.309 23.76-54.309 54.308 0 30.549 23.76 54.309 54.309 54.309 29.418 0 54.309-23.76 54.309-54.309s-24.891-54.308-54.309-54.308m0 98.434c-24.891 0-44.125-19.234-44.125-44.126s19.234-44.125 44.125-44.125c23.76 0 44.125 19.234 44.125 44.125 0 24.892-19.234 44.126-44.125 44.126M295.869 234.206c-29.417 0-54.309 23.76-54.309 54.308 0 30.549 23.76 54.309 54.309 54.309 29.417 0 54.309-23.76 54.309-54.309-.001-30.548-24.892-54.308-54.309-54.308m0 98.434c-24.892 0-44.125-19.234-44.125-44.126s19.234-44.125 44.125-44.125c23.76 0 44.125 19.234 44.125 44.125 0 24.892-19.234 44.126-44.125 44.126M392.039 149.349c14.709 0 26.023-11.314 26.023-26.023s-11.314-26.023-26.023-26.023-26.022 11.314-26.022 26.023 11.313 26.023 26.022 26.023"/><path fill="#535bf2" d="M369.411 267.017v44.126h24.892v-61.097l-42.995-32.812 22.629-31.68 63.36 32.812 9.051-18.103-61.096-31.68 6.787-9.052-27.154-19.234-56.571 80.332 22.629 16.971z"/><path fill="#535bf2" d="M397.698 313.406h-23.761c-4.525 0-7.92 3.394-7.92 7.92s3.395 6.789 7.92 6.789h23.761c4.525 0 6.787-3.394 6.787-6.789-.001-4.526-2.262-7.92-6.787-7.92"/><path fill="#535bf2" d="M375.069 0C244.954 0 138.6 106.354 138.6 236.469s236.469 513.668 236.469 513.668 236.469-383.554 236.469-514.799C611.536 105.223 505.182 0 375.069 0m0 420.892c-106.354 0-192.343-85.989-192.343-192.343S268.715 36.206 375.069 36.206s192.342 85.989 192.342 192.343c-1.131 106.354-87.12 192.343-192.342 192.343"/></svg>